<svg class="icon" viewBox="0 0 1024 1024" xmlns="http://www.w3.org/2000/svg" width="128" height="128"><defs><style/></defs><path d="M150.588 0h722.824C956.582 0 1024 67.418 1024 150.588v722.824c0 83.17-67.418 150.588-150.588 150.588H150.588C67.418 1024 0 956.582 0 873.412V150.588C0 67.418 67.418 0 150.588 0zm453.467 328.132h187.843c14.05 0 21.263-6.852 21.278-20.134v-15.782c0-13.417-7.228-20.148-21.624-20.148H416.587c-13.523 0-20.901 6.987-20.901 19.772 0 5.15.33 10.315-.06 15.42-1.01 12.71 8.026 21.113 22.437 21.022 61.982-.361 123.994-.15 185.977-.15zm.602 160.783H417.175c-14.547 0-21.625 6.716-21.625 20.48v15.074c0 13.794 7.078 20.495 21.64 20.495h225.882c49.197 0 98.394-.241 147.607.15 13.99.12 23.461-7.936 22.422-20.992-.391-4.758-.06-9.577-.06-14.366-.015-14.26-6.942-20.841-22.016-20.841H604.672zm-4.668 273.061h184.666c13.252 0 20.48-7.017 20.51-19.847V725.97c-.015-13.463-7.077-20.21-21.218-20.21H415.684c-12.755 0-20.119 7.139-20.134 19.487v16.504c0 13.478 7.078 20.224 21.218 20.224h183.206zM347.332 324.683c0-16.429.06-32.873 0-49.332-.06-11.49-7.891-19.306-19.426-19.32a35086.25 35086.25 0 0 0-97.521 0c-11.746 0-19.516 7.83-19.531 19.59a34837.47 34837.47 0 0 0 0 97.175c0 11.972 7.77 19.697 19.802 19.712 32.256.03 64.512.03 96.783 0 12.198-.015 19.863-7.71 19.878-19.983.045-15.932.015-31.88.015-47.842zm.015 385.461c0-16.068.03-32.15 0-48.203-.03-12.8-7.53-20.405-20.224-20.42h-96.075c-12.695.015-20.224 7.62-20.224 20.42v95.683c0 12.8 7.529 20.39 20.224 20.405h96.075c12.68 0 20.209-7.605 20.224-20.405v-47.48zm16.068-262.731c-.693-4.759-4.142-7.77-8.087-6.325a21.715 21.715 0 0 0-7.228 4.608 22819.162 22819.162 0 0 0-83.908 79.526c-1.958 1.852-3.208 2.108-5.391.3-10.617-8.884-21.338-17.618-32.075-26.352a25.254 25.254 0 0 0-4.126-2.922c-3.419-1.776-6.596-.948-9.337 1.536-2.68 2.425-2.982 5.572-1.717 8.825.753 1.807 1.702 3.524 2.877 5.09a17408.223 17408.223 0 0 0 36.638 50.884 25.986 25.986 0 0 0 3.87 4.352c3.087 2.68 6.475 3.057 9.637.873 1.853-1.28 3.464-3.027 4.94-4.774 6.67-7.936 13.252-15.947 19.877-23.928 23.372-28.16 46.743-56.32 70.039-84.555 1.687-2.079 2.68-4.759 3.99-7.138z"/></svg>